<?xml version="1.0" standalone="no"?>
<!DOCTYPE svg PUBLIC "-//W3C//DTD SVG 20010904//EN"
 "http://www.w3.org/TR/2001/REC-SVG-20010904/DTD/svg10.dtd">
<svg version="1.0" xmlns="http://www.w3.org/2000/svg"
 width="300.000000pt" height="300.000000pt" viewBox="0 0 300.000000 300.000000"
 preserveAspectRatio="xMidYMid meet">
<metadata>
Created by potrace 1.11, written by Peter Selinger 2001-2013
</metadata>
<g transform="translate(0.000000,300.000000) scale(0.100000,-0.100000)"
fill="#000000" stroke="none">
<path d="M0 1500 l0 -1500 1500 0 1500 0 0 1500 0 1500 -1500 0 -1500 0 0
-1500z m1781 1356 c346 -66 614 -257 754 -536 135 -272 146 -529 34 -846 -101
-286 -267 -491 -483 -598 -138 -68 -150 -68 -76 0 126 118 225 283 270 453 44
168 21 389 -56 528 -105 189 -240 298 -464 376 -110 38 -190 50 -330 49 -141
-1 -268 -21 -375 -59 -497 -179 -794 -653 -745 -1189 6 -66 18 -148 26 -183 8
-35 12 -66 10 -68 -12 -13 -101 173 -141 296 -173 524 80 1195 580 1540 106
74 108 74 86 9 -10 -29 -26 -88 -36 -131 -14 -59 -22 -76 -33 -72 -12 4 -12 3
-3 -9 7 -9 10 -30 7 -53 l-6 -38 10 33 c13 39 26 34 51 -22 26 -58 24 -72 -12
-85 -47 -16 -72 -14 -65 5 3 9 8 28 11 42 3 15 -2 8 -11 -15 l-16 -43 -36 16
c-20 9 -43 18 -49 21 -18 7 -53 67 -53 91 0 37 43 76 84 76 21 0 31 3 23 8
-34 21 -100 -7 -114 -49 -34 -99 118 -206 231 -164 17 7 26 7 29 -2 5 -16 37
9 37 29 0 22 43 59 65 56 19 -3 115 75 115 93 0 4 -6 2 -14 -4 -12 -10 -15 -5
-21 28 -4 22 -3 46 1 53 18 31 -36 -27 -65 -70 l-33 -47 37 40 37 40 -5 -44
c-4 -27 -14 -52 -28 -65 -17 -16 -20 -17 -16 -4 12 34 -22 27 -45 -10 l-23
-37 -3 45 c-4 46 13 272 25 344 6 37 10 41 77 72 234 108 520 146 757 100z
m-859 -203 c-6 -26 -16 -104 -22 -173 -14 -158 -17 -165 -41 -118 -10 20 -23
39 -28 42 -14 9 56 260 82 294 16 21 19 6 9 -45z m182 -535 c-150 -114 -258
-263 -319 -443 -36 -104 -45 -272 -21 -385 49 -234 220 -424 471 -523 164 -64
253 -74 608 -67 59 1 85 -6 114 -32 l22 -21 -33 -41 c-18 -22 -50 -72 -71
-111 -76 -141 -115 -175 -193 -168 -26 3 -58 0 -72 -5 -19 -8 -9 -9 40 -5 78
5 64 -12 -22 -26 -42 -7 -46 -9 -18 -9 19 -1 53 5 75 13 22 8 54 15 70 15 19
0 25 3 17 8 -9 6 1 18 33 41 49 35 82 85 115 172 11 31 32 70 46 85 15 16 38
43 53 59 l26 30 -30 -27 -31 -28 -25 25 c-14 15 -43 29 -69 34 l-45 8 45 12
c304 83 558 286 692 556 39 78 85 221 104 324 13 76 15 126 10 250 -3 86 -8
172 -11 191 -5 33 -4 31 24 -20 41 -77 85 -209 106 -315 23 -119 16 -363 -13
-475 -57 -212 -139 -383 -273 -560 -223 -297 -597 -505 -972 -540 -317 -30
-654 83 -876 294 -171 164 -267 380 -278 626 -9 210 22 342 133 565 127 256
293 415 518 496 68 25 85 24 50 -3z m185 -505 c-229 -275 -263 -313 -280 -313
-10 0 -19 2 -19 5 0 3 44 58 99 123 54 64 97 118 96 120 -2 2 -42 -20 -91 -47
-48 -28 -90 -49 -92 -46 -7 6 -13 2 108 70 58 32 121 69 140 82 41 27 59 30
39 6z m562 7 c20 -11 25 -41 10 -68 -5 -9 -30 -28 -55 -42 -43 -23 -46 -27
-46 -64 0 -52 -33 -101 -86 -126 -63 -31 -109 -25 -125 17 -16 42 14 81 86
115 59 27 64 32 59 56 -6 36 24 84 67 105 40 19 63 21 90 7z m273 -6 c31 -31
10 -70 -53 -99 -38 -17 -40 -20 -26 -35 25 -27 18 -60 -22 -100 -40 -39 -133
-80 -181 -80 -61 0 -101 70 -44 78 25 4 32 -25 7 -34 -23 -9 -18 -21 11 -28
56 -14 214 91 214 142 0 24 -15 27 -56 12 -49 -19 -37 -2 15 20 79 34 155 130
103 130 -22 0 -112 -56 -112 -70 0 -13 37 -13 45 0 3 5 20 19 38 31 l32 23
-19 -22 c-48 -55 -116 -74 -116 -33 0 54 126 104 164 65z m-571 -25 c22 -36
-2 -90 -71 -158 -79 -78 -151 -119 -218 -126 l-49 -4 42 9 c57 12 79 25 140
83 62 59 68 75 16 47 -48 -26 -69 -25 -83 1 -9 15 -9 28 0 49 34 83 190 152
223 99z"/>
<path d="M1727 2564 c-8 -8 1 -24 14 -24 5 0 9 7 9 15 0 15 -12 20 -23 9z"/>
<path d="M1170 2483 c-30 -32 -38 -42 -16 -23 l39 35 -7 -34 c-10 -57 -56
-110 -56 -66 0 19 -16 20 -23 1 -14 -36 39 -35 85 2 32 25 34 30 25 61 -5 22
-5 43 2 58 6 13 9 23 8 23 -2 0 -27 -26 -57 -57z"/>
<path d="M1310 2501 c-40 -22 -90 -71 -71 -71 7 0 9 -4 6 -10 -3 -5 5 -15 19
-21 22 -10 31 -8 63 13 57 38 83 44 83 20 0 -11 7 -22 15 -26 8 -3 15 -1 15 3
0 5 -6 11 -12 14 -16 5 18 44 61 70 28 16 31 17 31 2 0 -9 5 -15 12 -13 19 7
21 27 4 34 -24 9 -61 -3 -94 -31 -39 -33 -58 -32 -57 3 0 34 -26 39 -75 13z
m70 -9 c0 -34 -92 -104 -111 -85 -12 12 24 59 65 84 39 24 46 24 46 1z"/>
<path d="M1595 2480 c-22 -10 -34 -19 -27 -19 10 -1 10 -5 -2 -17 -27 -26 -20
-44 17 -43 28 1 29 2 8 8 -23 6 -21 9 32 45 32 22 57 41 57 43 0 9 -50 -1 -85
-17z"/>
<path d="M1706 2445 c-15 -8 -36 -15 -45 -15 -9 0 -23 -5 -31 -11 -12 -8 -9
-9 12 -5 22 5 27 2 30 -16 2 -19 10 -24 46 -26 28 -2 42 -8 42 -18 0 -16 58
-18 100 -3 17 5 8 6 -29 3 -64 -7 -62 3 8 36 54 25 67 44 28 38 -13 -1 -32 5
-41 15 -22 21 -81 22 -120 2z m118 -26 c-16 -27 -144 -53 -144 -30 0 27 114
68 137 49 7 -6 10 -14 7 -19z"/>
<path d="M1510 2435 c-14 -8 -34 -15 -45 -15 -11 -1 -14 -4 -8 -7 15 -6 80 15
88 28 9 13 -6 11 -35 -6z"/>
<path d="M2080 2416 c-25 -6 -51 -15 -58 -20 -7 -4 -41 -11 -75 -14 -48 -4
-56 -7 -37 -13 14 -4 18 -7 9 -8 -21 -1 -53 -37 -44 -50 3 -6 18 -11 33 -10
24 0 25 1 7 8 -18 7 -16 10 15 23 95 40 143 51 164 38 19 -12 20 -11 8 2 -11
14 -8 17 18 26 56 20 26 33 -40 18z"/>
<path d="M2207 2324 c-8 -8 1 -24 14 -24 5 0 9 7 9 15 0 15 -12 20 -23 9z"/>
<path d="M1956 2302 c-2 -4 4 -8 14 -9 11 -1 22 2 25 8 4 5 -3 9 -14 9 -11 0
-22 -4 -25 -8z"/>
<path d="M2025 2301 c3 -5 -4 -12 -15 -16 -43 -14 -10 -55 44 -55 19 0 26 -5
26 -19 0 -24 36 -51 68 -51 13 0 37 -7 55 -17 30 -15 31 -15 18 0 -11 15 -11
17 1 17 24 0 38 21 28 40 -14 27 -65 40 -151 40 -43 0 -80 4 -84 9 -6 11 55
31 92 31 27 0 38 16 17 24 -25 10 -106 7 -99 -3z m214 -106 c12 -12 11 -16
-13 -25 -15 -5 -39 -7 -54 -4 -15 3 -37 7 -49 10 -27 5 -30 30 -5 37 28 9 106
-3 121 -18z"/>
<path d="M752 2195 c-17 -37 -14 -45 4 -12 9 16 14 31 11 33 -2 2 -9 -7 -15
-21z"/>
<path d="M688 2105 c-26 -25 -44 -45 -40 -45 9 1 40 28 71 63 37 41 22 32 -31
-18z"/>
<path d="M560 2093 c0 -27 20 -43 50 -42 23 2 23 2 3 6 -16 3 -22 11 -20 26 1
13 -4 23 -15 25 -12 2 -18 -3 -18 -15z"/>
<path d="M2330 2103 c5 -2 10 -9 10 -15 0 -7 -22 -9 -65 -4 -53 5 -64 4 -59
-7 3 -8 24 -17 47 -21 59 -8 110 -23 132 -40 17 -12 13 -13 -31 -9 -54 4 -80
-7 -71 -31 6 -16 78 -56 99 -55 7 0 -6 9 -28 19 -60 26 -64 40 -12 40 79 0 88
31 17 60 -22 10 -27 15 -17 21 15 10 1 41 -20 45 -7 1 -8 0 -2 -3z"/>
<path d="M2378 868 c2 -18 -3 -53 -12 -78 -8 -24 -14 -46 -12 -48 4 -3 29 63
40 104 4 11 0 28 -7 38 -12 16 -13 14 -9 -16z"/>
<path d="M2336 861 c-9 -16 -20 -71 -26 -122 -14 -123 -28 -185 -52 -228 -13
-23 -14 -29 -4 -17 9 11 16 24 16 30 0 6 7 0 16 -12 8 -12 19 -22 23 -22 10 0
51 74 51 91 0 8 -9 -5 -20 -28 -10 -24 -22 -43 -26 -43 -4 0 -4 30 0 68 4 37
10 105 12 150 3 46 11 101 18 123 16 46 12 50 -8 10z"/>
<path d="M803 795 c-43 -18 -66 -55 -54 -86 13 -33 69 -85 111 -103 l35 -14
-25 -10 c-14 -5 -43 -17 -65 -26 -22 -10 -67 -17 -99 -17 -49 -1 -66 4 -100
28 -44 31 -61 67 -29 61 11 -2 18 3 18 12 0 20 -25 19 -38 -2 -17 -26 8 -62
65 -93 45 -24 57 -27 131 -23 60 3 95 10 131 28 28 13 64 23 80 23 26 -2 27 0
11 6 -17 8 -13 12 30 32 30 14 70 23 102 23 34 1 46 4 36 10 -22 12 -126 -2
-188 -25 -52 -19 -53 -19 -96 0 -46 20 -96 65 -99 91 -8 55 24 80 103 81 49 1
56 3 32 9 -44 11 -57 11 -92 -5z"/>
<path d="M960 771 c19 -11 39 -20 45 -21 16 0 -28 27 -55 34 -19 5 -16 2 10
-13z"/>
<path d="M1705 673 c-40 -20 -93 -71 -111 -105 -15 -30 -19 -108 -5 -108 5 0
9 16 9 35 0 48 52 127 109 165 49 32 48 40 -2 13z"/>
<path d="M1820 621 c29 -5 36 -11 38 -34 6 -54 -56 -111 -161 -148 -39 -14
-43 -17 -17 -13 89 15 190 96 190 152 0 37 -17 52 -54 51 -31 -2 -31 -2 4 -8z"/>
<path d="M1993 585 c0 -22 2 -30 4 -17 2 12 2 30 0 40 -3 9 -5 -1 -4 -23z"/>
<path d="M1080 570 l-65 -7 60 -1 c33 0 69 3 80 8 22 9 19 9 -75 0z"/>
<path d="M1694 558 c-29 -33 -54 -75 -54 -90 1 -7 9 1 18 19 9 17 29 45 45 62
15 17 23 31 19 31 -5 0 -17 -10 -28 -22z"/>
<path d="M2213 568 c-43 -57 -26 -165 17 -113 11 13 10 14 -5 9 -14 -6 -16 -3
-12 12 9 32 19 104 14 104 -2 0 -9 -6 -14 -12z"/>
<path d="M2131 508 c-11 -18 -29 -44 -40 -58 -54 -64 -72 -90 -62 -90 6 0 20
14 30 31 10 17 28 37 40 45 20 14 21 14 21 -10 0 -33 23 -34 44 -1 22 34 20
42 -5 14 l-20 -24 5 25 c22 110 19 123 -13 68z"/>
<path d="M793 476 c-24 -20 -25 -26 -14 -40 7 -9 24 -16 38 -16 13 0 31 -7 40
-16 11 -11 26 -14 54 -9 35 6 37 5 32 -16 -6 -21 -4 -22 45 -16 29 3 60 11 70
17 16 11 16 11 -1 6 -10 -3 -37 -9 -60 -12 l-42 -6 48 33 c58 39 49 58 -14 31
-100 -43 -153 -36 -59 8 32 15 46 26 38 31 -6 4 -20 3 -30 -2 -13 -7 -18 -6
-18 5 0 34 -87 36 -127 2z m112 -6 c0 -16 -54 -38 -92 -39 -39 -1 -26 26 20
42 50 18 72 17 72 -3z"/>
<path d="M1100 485 c0 -9 5 -15 11 -13 6 2 11 8 11 13 0 5 -5 11 -11 13 -6 2
-11 -4 -11 -13z"/>
<path d="M2020 460 c-42 -45 -52 -100 -19 -100 6 0 7 4 4 10 -9 14 31 99 50
107 10 3 21 0 27 -8 8 -12 9 -11 5 1 -7 27 -37 22 -67 -10z"/>
<path d="M1361 405 c-65 -55 -102 -109 -85 -124 5 -5 18 -5 29 -1 20 8 20 9 0
9 -15 1 -7 14 39 60 42 42 65 58 79 55 16 -3 18 -1 9 8 -9 9 -8 16 5 30 13 14
13 18 2 18 -8 -1 -43 -25 -78 -55z"/>
<path d="M1920 395 c-19 -19 -57 -44 -85 -55 -42 -17 -44 -19 -15 -14 41 7 90
38 120 77 30 37 21 34 -20 -8z"/>
<path d="M1135 411 c3 -6 -13 -24 -35 -42 -39 -31 -50 -49 -31 -49 5 0 33 16
62 37 30 20 46 33 37 30 -11 -4 -15 -2 -12 7 3 7 -2 16 -11 20 -9 3 -13 2 -10
-3z"/>
<path d="M1090 400 c-8 -5 -10 -10 -5 -10 6 0 17 5 25 10 8 5 11 10 5 10 -5 0
-17 -5 -25 -10z"/>
<path d="M1208 392 c9 -6 4 -14 -18 -30 -36 -27 -41 -62 -7 -61 20 0 110 37
96 38 -4 1 -26 -6 -49 -14 -55 -19 -61 -13 -21 20 37 31 40 55 9 55 -15 0 -19
-3 -10 -8z"/>
<path d="M1415 340 c-7 -11 -8 -11 25 -14 31 -4 52 3 44 15 -7 12 -61 11 -69
-1z"/>
<path d="M1346 305 c-11 -8 -15 -15 -10 -15 6 0 19 7 30 15 10 8 15 14 9 14
-5 0 -19 -6 -29 -14z"/>
<path d="M1770 1603 c-32 -21 -40 -33 -40 -58 0 -39 15 -50 49 -35 50 20 81
49 81 75 0 37 -48 47 -90 18z"/>
<path d="M1667 1454 c-76 -27 -121 -73 -109 -116 6 -25 53 -31 99 -13 49 19
75 61 67 104 -8 40 -11 41 -57 25z"/>
<path d="M1459 1572 c-24 -16 -59 -45 -76 -66 -33 -37 -44 -76 -20 -76 44 2
177 111 177 146 0 32 -25 31 -81 -4z"/>
</g>
</svg>
